<svg width="36" height="35" viewBox="0 0 36 35" fill="none" xmlns="http://www.w3.org/2000/svg">
<path d="M17.9685 15.381H20.0519V12.2381H23.1769V10.1429H20.0519V7H17.9685V10.1429H14.8435V12.2381H17.9685V15.381ZM13.8019 24.8095C12.656 24.8095 11.729 25.7524 11.729 26.9048C11.729 28.0571 12.656 29 13.8019 29C14.9477 29 15.8852 28.0571 15.8852 26.9048C15.8852 25.7524 14.9477 24.8095 13.8019 24.8095ZM24.2185 24.8095C23.0727 24.8095 22.1456 25.7524 22.1456 26.9048C22.1456 28.0571 23.0727 29 24.2185 29C25.3644 29 26.3019 28.0571 26.3019 26.9048C26.3019 25.7524 25.3644 24.8095 24.2185 24.8095ZM13.979 21.4048L14.0102 21.279L14.9477 19.5714H22.7081C23.4894 19.5714 24.1769 19.1419 24.531 18.4924L28.5519 11.1486L26.7394 10.1429H26.729L25.5831 12.2381L22.7081 17.4762H15.3956L15.2602 17.1933L12.9269 12.2381L11.9373 10.1429L10.9581 8.04762H7.55188V10.1429H9.63521L13.3852 18.0943L11.979 20.661C11.8123 20.9543 11.7185 21.3 11.7185 21.6667C11.7185 22.819 12.656 23.7619 13.8019 23.7619H26.3019V21.6667H14.2394C14.104 21.6667 13.979 21.5514 13.979 21.4048Z" fill="black"/>
</svg>
