<svg width="33" height="32" viewBox="0 0 33 32" fill="none" xmlns="http://www.w3.org/2000/svg">
<circle cx="16.6667" cy="16" r="15.3333" stroke="black" stroke-width="1.33333"/>
<path d="M12.4187 24H8.94356V13.3176H12.4187V24ZM10.6793 11.8604C9.56803 11.8604 8.66669 10.9819 8.66669 9.92111C8.66669 9.4116 8.87873 8.92296 9.25616 8.56268C9.6336 8.2024 10.1455 8 10.6793 8C11.2131 8 11.725 8.2024 12.1024 8.56268C12.4798 8.92296 12.6919 9.4116 12.6919 9.92111C12.6919 10.9819 11.7902 11.8604 10.6793 11.8604ZM25.4252 24H21.9575V18.7999C21.9575 17.5606 21.9313 15.9712 20.1507 15.9712C18.3439 15.9712 18.067 17.3177 18.067 18.7106V24H14.5956V13.3176H17.9286V14.7748H17.9772C18.4412 13.9355 19.5745 13.0498 21.2653 13.0498C24.7824 13.0498 25.429 15.2605 25.429 18.132V24H25.4252Z" fill="black"/>
</svg>
