<svg width="133" height="116" viewBox="0 0 133 116" fill="none" xmlns="http://www.w3.org/2000/svg">
<path d="M81.9076 95.8007C76.2008 90.4404 68.7987 90.7872 62.3121 93.5766C55.8255 96.3659 49.8671 101.33 43.5471 104.86C38.2487 107.818 32.6888 109.761 27.061 110.625C19.0062 111.854 10.0111 110.352 4.39937 101.691C-1.8503 92.0406 -1.37031 74.6353 5.38648 65.7825C8.82534 61.2769 13.3278 59.065 17.2541 55.5425C21.1803 52.0199 24.8154 46.1818 24.481 39.392C24.1713 33.1114 20.572 28.2809 16.8469 25.2553C13.9682 22.9151 10.4232 20.3606 10.0765 15.5164C9.74089 10.8278 12.722 7.15507 15.5686 5.06611C24.8548 -1.74963 36.298 -1.6841 45.5522 5.23814C48.8528 7.70667 51.887 10.9903 55.348 12.9154C64.4356 17.9671 74.4499 12.8813 84.073 11.0217C92.2167 9.44746 100.569 10.2626 108.504 13.4069C113.269 15.2952 118.053 18.1856 121.401 23.5609C123.815 27.4385 125.32 32.3455 126.731 37.1924C128.237 42.3615 129.684 47.5667 131.073 52.8077C131.906 55.948 132.727 59.162 132.943 62.5275C133.333 68.6278 131.689 74.6572 129.451 79.8058C124.133 92.0269 115.182 100.622 105.488 102.806C95.795 104.991 85.5401 100.724 78.022 91.3934" fill="white" fill-opacity="0.77"/>
<path d="M89.9748 100.801C85.1691 95.4404 78.9357 95.7872 73.4734 98.5766C68.011 101.366 62.9933 106.33 57.6712 109.86C53.2095 112.818 48.5274 114.761 43.7882 115.625C37.0052 116.854 29.4304 115.352 24.7047 106.691C19.4419 97.0406 19.8461 79.6353 25.536 70.7825C28.4319 66.2769 32.2234 64.065 35.5297 60.5425C38.8361 57.0199 41.8971 51.1818 41.6156 44.392C41.3547 38.1114 38.3238 33.2809 35.1868 30.2553C32.7627 27.9151 29.7775 25.3606 29.4855 20.5164C29.2029 15.8278 31.7132 12.1551 34.1104 10.0661C41.9304 3.25037 51.5667 3.3159 59.3597 10.2381C62.1392 12.7067 64.6943 15.9903 67.6089 17.9154C75.2616 22.9671 83.6947 17.8813 91.7984 16.0217C98.6562 14.4475 105.69 15.2626 112.372 18.4069C116.385 20.2952 120.413 23.1856 123.232 28.5609C125.266 32.4385 126.532 37.3455 127.721 42.1924C128.989 47.3615 130.207 52.5667 131.377 57.8077C132.079 60.948 132.77 64.162 132.952 67.5275C133.28 73.6278 131.896 79.6572 130.011 84.8058C125.533 97.0269 117.995 105.622 109.832 107.806C101.669 109.991 93.0338 105.724 86.7028 96.3934" fill="white" fill-opacity="0.5"/>
<path d="M65.5709 70.4789H61.2943C60.8208 71.5468 60.5841 72.2872 60.5841 72.7003C60.5841 73.0025 60.6949 73.1939 60.9165 73.2745C61.1483 73.3551 61.4908 73.3954 61.9441 73.3954V73.9999H57.8035V73.3954C58.0453 73.3652 58.2519 73.3249 58.4231 73.2745C58.6045 73.2241 58.7606 73.1536 58.8916 73.063C59.0326 72.9723 59.1535 72.8564 59.2543 72.7154C59.355 72.5643 59.4507 72.3829 59.5414 72.1714L63.5157 62.2128H64.634L68.2457 71.038C68.4572 71.5518 68.6335 71.9548 68.7746 72.2469C68.9257 72.5391 69.0818 72.7658 69.243 72.927C69.4143 73.0781 69.6057 73.1839 69.8173 73.2443C70.0389 73.3047 70.321 73.3501 70.6635 73.3803V73.9999H64.9513V73.3803C65.4349 73.3602 65.7825 73.3098 65.994 73.2292C66.2056 73.1486 66.3114 72.9874 66.3114 72.7456C66.3114 72.6046 66.2761 72.4232 66.2056 72.2016C66.1351 71.98 66.0394 71.708 65.9185 71.3856L65.5709 70.4789ZM61.6419 69.5722H65.2385L63.5006 64.9934H63.4402L61.6419 69.5722ZM81.5075 73.9999H70.4458V73.6523L78.047 63.1497H74.2237C73.4782 63.1497 72.9141 63.3361 72.5312 63.7089C72.1585 64.0816 71.9016 64.6609 71.7605 65.4467H71.1712L71.413 62.3639H81.2053V62.7115L73.6797 73.1536H78.0016C78.5456 73.1536 78.9889 73.1083 79.3314 73.0176C79.6841 72.927 79.9661 72.7658 80.1777 72.5341C80.3993 72.3023 80.5706 71.9951 80.6915 71.6122C80.8124 71.2294 80.9182 70.7408 81.0088 70.1464H81.704L81.5075 73.9999ZM88.2001 73.9999H82.8052V73.3954C83.1478 73.3853 83.4198 73.3551 83.6213 73.3047C83.8328 73.2443 83.994 73.1385 84.1048 72.9874C84.2156 72.8363 84.2912 72.6247 84.3315 72.3527C84.3718 72.0706 84.3919 71.6928 84.3919 71.2193V65.1445C84.3919 64.7214 84.3718 64.3738 84.3315 64.1018C84.3013 63.8197 84.2358 63.5981 84.135 63.4369C84.0343 63.2757 83.8882 63.1649 83.6968 63.1044C83.5155 63.0339 83.2686 62.9886 82.9563 62.9684V62.3639H88.049V62.9684C87.7366 62.9886 87.4848 63.0339 87.2934 63.1044C87.112 63.1649 86.971 63.2757 86.8702 63.4369C86.7695 63.5981 86.699 63.8197 86.6587 64.1018C86.6285 64.3738 86.6133 64.7214 86.6133 65.1445V71.2193C86.6133 71.6928 86.6285 72.0706 86.6587 72.3527C86.699 72.6247 86.7745 72.8363 86.8854 72.9874C87.0063 73.1385 87.1674 73.2443 87.3689 73.3047C87.5805 73.3551 87.8575 73.3853 88.2001 73.3954V73.9999ZM95.6953 62.2128C96.602 62.2128 97.4483 62.369 98.2341 62.6813C99.0199 62.9936 99.6999 63.4218 100.274 63.9658C100.858 64.5098 101.317 65.1495 101.649 65.8849C101.982 66.6204 102.148 67.4163 102.148 68.2726C102.148 69.0886 101.977 69.8543 101.634 70.5695C101.302 71.2848 100.843 71.9094 100.259 72.4434C99.6848 72.9673 99.0047 73.3853 98.2189 73.6976C97.4331 73.9999 96.5919 74.151 95.6953 74.151C94.7987 74.151 93.9575 73.9999 93.1717 73.6976C92.3859 73.3853 91.7008 72.9673 91.1165 72.4434C90.5322 71.9094 90.0738 71.2848 89.7413 70.5695C89.4089 69.8543 89.2427 69.0886 89.2427 68.2726C89.2427 67.4163 89.4089 66.6204 89.7413 65.8849C90.0738 65.1495 90.5271 64.5098 91.1014 63.9658C91.6857 63.4218 92.3708 62.9936 93.1566 62.6813C93.9424 62.369 94.7886 62.2128 95.6953 62.2128ZM95.6953 73.1687C96.2796 73.1687 96.8085 73.0579 97.282 72.8363C97.7555 72.6046 98.1585 72.2822 98.491 71.8691C98.8234 71.446 99.0753 70.9373 99.2465 70.3429C99.4279 69.7384 99.5185 69.0634 99.5185 68.3179C99.5185 67.5321 99.4279 66.8269 99.2465 66.2023C99.0753 65.5676 98.8234 65.0286 98.491 64.5853C98.1585 64.132 97.7555 63.7895 97.282 63.5578C96.8085 63.316 96.2796 63.1951 95.6953 63.1951C95.1009 63.1951 94.567 63.316 94.0935 63.5578C93.6301 63.7895 93.2321 64.132 92.8997 64.5853C92.5672 65.0286 92.3103 65.5676 92.129 66.2023C91.9577 66.8269 91.8721 67.5321 91.8721 68.3179C91.8721 69.0634 91.9577 69.7384 92.129 70.3429C92.3103 70.9373 92.5672 71.446 92.8997 71.8691C93.2321 72.2822 93.6301 72.6046 94.0935 72.8363C94.567 73.0579 95.1009 73.1687 95.6953 73.1687ZM113.582 73.9999H103.17V73.3954C103.503 73.3853 103.775 73.3551 103.986 73.3047C104.198 73.2544 104.359 73.1687 104.47 73.0478C104.581 72.927 104.656 72.7557 104.696 72.5341C104.737 72.3124 104.757 72.0253 104.757 71.6727V64.6911C104.757 64.3385 104.737 64.0564 104.696 63.8449C104.666 63.6232 104.601 63.452 104.5 63.3311C104.399 63.2001 104.253 63.1145 104.062 63.0742C103.88 63.0238 103.639 62.9886 103.336 62.9684V62.3639H108.55V62.9684C108.207 62.9785 107.93 63.0087 107.719 63.0591C107.517 63.1094 107.361 63.2001 107.25 63.3311C107.139 63.4621 107.064 63.6434 107.024 63.8751C106.993 64.1068 106.978 64.4141 106.978 64.7969V71.1287C106.978 71.5518 107.019 71.8994 107.099 72.1714C107.19 72.4333 107.341 72.6398 107.552 72.7909C107.764 72.932 108.046 73.0327 108.399 73.0932C108.751 73.1436 109.19 73.1687 109.713 73.1687C110.298 73.1687 110.786 73.1335 111.179 73.063C111.572 72.9924 111.9 72.8615 112.162 72.6701C112.434 72.4686 112.65 72.2016 112.811 71.8691C112.973 71.5367 113.109 71.1035 113.219 70.5695H113.824L113.582 73.9999ZM119.988 73.9999H114.593V73.3954C114.935 73.3853 115.207 73.3551 115.409 73.3047C115.62 73.2443 115.782 73.1385 115.892 72.9874C116.003 72.8363 116.079 72.6247 116.119 72.3527C116.159 72.0706 116.179 71.6928 116.179 71.2193V65.1445C116.179 64.7214 116.159 64.3738 116.119 64.1018C116.089 63.8197 116.023 63.5981 115.923 63.4369C115.822 63.2757 115.676 63.1649 115.484 63.1044C115.303 63.0339 115.056 62.9886 114.744 62.9684V62.3639H119.836V62.9684C119.524 62.9886 119.272 63.0339 119.081 63.1044C118.9 63.1649 118.758 63.2757 118.658 63.4369C118.557 63.5981 118.486 63.8197 118.446 64.1018C118.416 64.3738 118.401 64.7214 118.401 65.1445V71.2193C118.401 71.6928 118.416 72.0706 118.446 72.3527C118.486 72.6247 118.562 72.8363 118.673 72.9874C118.794 73.1385 118.955 73.2443 119.156 73.3047C119.368 73.3551 119.645 73.3853 119.988 73.3954V73.9999Z" fill="black"/>
<path d="M47.7104 67.8176V65.6401C47.7104 63.188 49.7051 61.1936 52.1569 61.1936C61.401 61.1932 68.9218 53.6729 68.9218 44.4288C68.9218 35.1846 61.401 27.6639 52.1569 27.6639L29.6561 27.6639C28.8387 27.6639 28.1762 28.3264 28.1762 29.1438V76.6967C28.1762 77.5141 28.8387 78.1766 29.6561 78.1766H37.3513C43.0635 78.1766 47.7104 73.5297 47.7104 67.8176ZM52.1569 30.6237C59.7693 30.6237 65.962 36.8164 65.962 44.4288C65.962 52.0408 59.769 58.2339 52.1569 58.2339C48.073 58.2339 44.7507 61.5563 44.7507 65.6401V67.8176C44.7507 71.3908 42.2044 74.3806 38.8312 75.0681V30.6237H52.1569Z" fill="black"/>
<rect x="47.6118" y="27.6639" width="1.57852" height="11.9376" fill="black"/>
<path d="M43.1722 40.1936C43.1722 39.3218 43.8789 38.6151 44.7507 38.6151H52.0514C52.9232 38.6151 53.6299 39.3218 53.6299 40.1936V58.3326C53.6299 59.0408 53.1582 59.6623 52.4761 59.8529L47.8511 61.1452C47.2803 61.3047 46.8469 61.7704 46.729 62.3512L44.4621 73.5114C44.4004 73.815 44.1334 74.0332 43.8236 74.0332C43.4638 74.0332 43.1722 73.7415 43.1722 73.3817V40.1936Z" fill="black"/>
<circle cx="48.4011" cy="39.6018" r="1.97315" fill="black"/>
<path d="M62.7064 32.8927H64.2849V39.6014H62.7064V32.8927Z" fill="black"/>
<path d="M57.5762 40.1936C57.5762 39.3218 58.2829 38.6151 59.1547 38.6151H66.4553C67.3271 38.6151 68.0339 39.3218 68.0339 40.1936V47.5847C68.0339 47.9713 67.892 48.3445 67.6351 48.6335L58.7659 58.6114C58.6367 58.7567 58.4515 58.8399 58.257 58.8399C57.881 58.8399 57.5762 58.5351 57.5762 58.1591V40.1936Z" fill="black"/>
<circle cx="63.4956" cy="39.6018" r="1.97315" fill="black"/>
</svg>
