<svg width="89" height="44" viewBox="0 0 89 44" fill="none" xmlns="http://www.w3.org/2000/svg">
<path d="M31.1228 36.479H26.8462C26.3727 37.5469 26.136 38.2874 26.136 38.7004C26.136 39.0026 26.2468 39.194 26.4684 39.2746C26.7001 39.3552 27.0427 39.3955 27.496 39.3955V40H23.3554V39.3955C23.5972 39.3653 23.8037 39.325 23.975 39.2746C24.1563 39.2243 24.3125 39.1538 24.4435 39.0631C24.5845 38.9724 24.7054 38.8566 24.8061 38.7155C24.9069 38.5644 25.0026 38.3831 25.0933 38.1715L29.0676 28.2129H30.1859L33.7975 37.0381C34.0091 37.5519 34.1854 37.9549 34.3265 38.2471C34.4776 38.5392 34.6337 38.7659 34.7949 38.9271C34.9662 39.0782 35.1576 39.184 35.3692 39.2444C35.5908 39.3049 35.8729 39.3502 36.2154 39.3804V40H30.5032V39.3804C30.9868 39.3603 31.3344 39.3099 31.5459 39.2293C31.7575 39.1487 31.8633 38.9875 31.8633 38.7457C31.8633 38.6047 31.828 38.4234 31.7575 38.2017C31.687 37.9801 31.5913 37.7081 31.4704 37.3857L31.1228 36.479ZM27.1938 35.5723H30.7903L29.0525 30.9935H28.9921L27.1938 35.5723ZM47.0594 40H35.9977V39.6524L43.5988 29.1499H39.7756C39.0301 29.1499 38.4659 29.3362 38.0831 29.709C37.7104 30.0817 37.4535 30.661 37.3124 31.4468H36.7231L36.9648 28.3641H46.7572V28.7116L39.2316 39.1538H43.5535C44.0975 39.1538 44.5408 39.1084 44.8833 39.0177C45.2359 38.9271 45.518 38.7659 45.7296 38.5342C45.9512 38.3025 46.1225 37.9952 46.2434 37.6124C46.3643 37.2295 46.47 36.7409 46.5607 36.1465H47.2558L47.0594 40ZM53.7519 40H48.3571V39.3955C48.6996 39.3855 48.9716 39.3552 49.1731 39.3049C49.3847 39.2444 49.5459 39.1386 49.6567 38.9875C49.7675 38.8364 49.8431 38.6248 49.8834 38.3528C49.9237 38.0708 49.9438 37.693 49.9438 37.2195V31.1446C49.9438 30.7215 49.9237 30.3739 49.8834 30.1019C49.8532 29.8198 49.7877 29.5982 49.6869 29.437C49.5862 29.2758 49.4401 29.165 49.2487 29.1045C49.0674 29.034 48.8205 28.9887 48.5082 28.9685V28.3641H53.6008V28.9685C53.2885 28.9887 53.0367 29.034 52.8453 29.1045C52.6639 29.165 52.5229 29.2758 52.4221 29.437C52.3214 29.5982 52.2509 29.8198 52.2106 30.1019C52.1803 30.3739 52.1652 30.7215 52.1652 31.1446V37.2195C52.1652 37.693 52.1803 38.0708 52.2106 38.3528C52.2509 38.6248 52.3264 38.8364 52.4372 38.9875C52.5581 39.1386 52.7193 39.2444 52.9208 39.3049C53.1324 39.3552 53.4094 39.3855 53.7519 39.3955V40ZM61.2472 28.2129C62.1539 28.2129 63.0001 28.3691 63.7859 28.6814C64.5717 28.9937 65.2518 29.4219 65.826 29.9659C66.4103 30.5099 66.8687 31.1496 67.2012 31.8851C67.5336 32.6205 67.6998 33.4164 67.6998 34.2727C67.6998 35.0887 67.5286 35.8544 67.186 36.5697C66.8536 37.2849 66.3952 37.9096 65.8109 38.4435C65.2367 38.9674 64.5566 39.3855 63.7708 39.6978C62.985 40 62.1438 40.1511 61.2472 40.1511C60.3506 40.1511 59.5094 40 58.7235 39.6978C57.9377 39.3855 57.2527 38.9674 56.6684 38.4435C56.0841 37.9096 55.6257 37.2849 55.2932 36.5697C54.9608 35.8544 54.7945 35.0887 54.7945 34.2727C54.7945 33.4164 54.9608 32.6205 55.2932 31.8851C55.6257 31.1496 56.079 30.5099 56.6533 29.9659C57.2376 29.4219 57.9226 28.9937 58.7084 28.6814C59.4942 28.3691 60.3405 28.2129 61.2472 28.2129ZM61.2472 39.1689C61.8315 39.1689 62.3604 39.058 62.8339 38.8364C63.3074 38.6047 63.7104 38.2823 64.0428 37.8693C64.3753 37.4461 64.6271 36.9374 64.7984 36.343C64.9798 35.7385 65.0704 35.0635 65.0704 34.318C65.0704 33.5322 64.9798 32.827 64.7984 32.2024C64.6271 31.5677 64.3753 31.0287 64.0428 30.5855C63.7104 30.1321 63.3074 29.7896 62.8339 29.5579C62.3604 29.3161 61.8315 29.1952 61.2472 29.1952C60.6528 29.1952 60.1189 29.3161 59.6454 29.5579C59.1819 29.7896 58.784 30.1321 58.4515 30.5855C58.1191 31.0287 57.8622 31.5677 57.6808 32.2024C57.5096 32.827 57.424 33.5322 57.424 34.318C57.424 35.0635 57.5096 35.7385 57.6808 36.343C57.8622 36.9374 58.1191 37.4461 58.4515 37.8693C58.784 38.2823 59.1819 38.6047 59.6454 38.8364C60.1189 39.058 60.6528 39.1689 61.2472 39.1689ZM79.1339 40H68.722V39.3955C69.0545 39.3855 69.3265 39.3552 69.538 39.3049C69.7496 39.2545 69.9108 39.1689 70.0216 39.048C70.1324 38.9271 70.208 38.7558 70.2483 38.5342C70.2886 38.3125 70.3087 38.0254 70.3087 37.6728V30.6913C70.3087 30.3386 70.2886 30.0566 70.2483 29.845C70.218 29.6234 70.1526 29.4521 70.0518 29.3312C69.9511 29.2002 69.805 29.1146 69.6136 29.0743C69.4322 29.0239 69.1905 28.9887 68.8882 28.9685V28.3641H74.1017V28.9685C73.7592 28.9786 73.4822 29.0088 73.2706 29.0592C73.0691 29.1096 72.913 29.2002 72.8021 29.3312C72.6913 29.4622 72.6158 29.6435 72.5755 29.8752C72.5452 30.1069 72.5301 30.4142 72.5301 30.797V37.1288C72.5301 37.5519 72.5704 37.8995 72.651 38.1715C72.7417 38.4334 72.8928 38.64 73.1044 38.7911C73.3159 38.9321 73.598 39.0329 73.9506 39.0933C74.3032 39.1437 74.7415 39.1689 75.2653 39.1689C75.8496 39.1689 76.3382 39.1336 76.7311 39.0631C77.1241 38.9926 77.4515 38.8616 77.7134 38.6702C77.9854 38.4687 78.202 38.2017 78.3632 37.8693C78.5244 37.5368 78.6604 37.1036 78.7712 36.5697H79.3757L79.1339 40ZM85.5394 40H80.1446V39.3955C80.4871 39.3855 80.7591 39.3552 80.9606 39.3049C81.1722 39.2444 81.3334 39.1386 81.4442 38.9875C81.555 38.8364 81.6306 38.6248 81.6709 38.3528C81.7112 38.0708 81.7313 37.693 81.7313 37.2195V31.1446C81.7313 30.7215 81.7112 30.3739 81.6709 30.1019C81.6407 29.8198 81.5752 29.5982 81.4744 29.437C81.3737 29.2758 81.2276 29.165 81.0362 29.1045C80.8548 29.034 80.608 28.9887 80.2957 28.9685V28.3641H85.3883V28.9685C85.076 28.9887 84.8242 29.034 84.6328 29.1045C84.4514 29.165 84.3104 29.2758 84.2096 29.437C84.1089 29.5982 84.0384 29.8198 83.9981 30.1019C83.9678 30.3739 83.9527 30.7215 83.9527 31.1446V37.2195C83.9527 37.693 83.9678 38.0708 83.9981 38.3528C84.0384 38.6248 84.1139 38.8364 84.2247 38.9875C84.3456 39.1386 84.5068 39.2444 84.7083 39.3049C84.9199 39.3552 85.1969 39.3855 85.5394 39.3955V40Z" fill="black"/>
<path d="M15.7927 31.3283V29.6294C15.7927 27.7162 17.349 26.1602 19.2619 26.1602C26.4743 26.1599 32.342 20.2925 32.342 13.0801C32.342 5.86774 26.4743 0 19.2619 0L1.70648 0C1.06874 0 0.55188 0.516866 0.55188 1.1546L0.55188 38.2559C0.55188 38.8936 1.06874 39.4105 1.70648 39.4105H7.71043C12.1671 39.4105 15.7927 35.7849 15.7927 31.3283ZM19.2619 2.30921C25.2012 2.30921 30.0328 7.14081 30.0328 13.0801C30.0328 19.0191 25.2009 23.851 19.2619 23.851C16.0756 23.851 13.4834 26.4431 13.4834 29.6294V31.3283C13.4834 34.1162 11.4969 36.4488 8.86503 36.9852L8.86503 2.30921L19.2619 2.30921Z" fill="black"/>
<rect x="15.7157" width="1.23158" height="9.31381" fill="black"/>
<path d="M12.2519 9.77577C12.2519 9.09559 12.8033 8.54419 13.4834 8.54419H19.1795C19.8597 8.54419 20.4111 9.09559 20.4111 9.77577V23.928C20.4111 24.4805 20.0431 24.9654 19.5109 25.1141L15.9024 26.1224C15.4571 26.2468 15.1189 26.6102 15.0269 27.0634L13.2582 35.7706C13.2101 36.0075 13.0018 36.1777 12.7601 36.1777C12.4794 36.1777 12.2519 35.9502 12.2519 35.6695V9.77577Z" fill="black"/>
<circle cx="16.3315" cy="9.31389" r="1.53947" fill="black"/>
<path d="M27.4926 4.07959H28.7242V9.3138H27.4926V4.07959Z" fill="black"/>
<path d="M23.49 9.77577C23.49 9.09558 24.0414 8.54419 24.7216 8.54419H30.4176C31.0978 8.54419 31.6492 9.09559 31.6492 9.77577V15.5424C31.6492 15.844 31.5385 16.1352 31.3381 16.3606L24.4182 24.1455C24.3174 24.2589 24.1729 24.3238 24.0212 24.3238C23.7278 24.3238 23.49 24.086 23.49 23.7926V9.77577Z" fill="black"/>
<circle cx="28.1084" cy="9.31389" r="1.53947" fill="black"/>
</svg>
